{
    "asset" : {
        "generator" : "Khronos glTF Blender I/O v3.4.35",
        "version" : "2.0"
    },
    "scene" : 0,
    "scenes" : [
        {
            "name" : "Scene",
            "nodes" : [
                0
            ]
        }
    ],
    "nodes" : [
        {
            "mesh" : 0,
            "name" : "Cube",
            "translation" : [
                -0.5599874258041382,
                -0.04710809513926506,
                -4.166290283203125
            ]
        }
    ],
    "meshes" : [
        {
            "name" : "Cube",
            "primitives" : [
                {
                    "attributes" : {
                        "POSITION" : 0,
                        "NORMAL" : 1
                    },
                    "indices" : 2
                }
            ]
        }
    ],
    "accessors" : [
        {
            "bufferView" : 0,
            "componentType" : 5126,
            "count" : 47232,
            "max" : [
                41,
                17.258752822875977,
                48
            ],
            "min" : [
                -41,
                -17.258752822875977,
                -48
            ],
            "type" : "VEC3"
        },
        {
            "bufferView" : 1,
            "componentType" : 5126,
            "count" : 47232,
            "type" : "VEC3"
        },
        {
            "bufferView" : 2,
            "componentType" : 5123,
            "count" : 70848,
            "type" : "SCALAR"
        }
    ],
    "bufferViews" : [
        {
            "buffer" : 0,
            "byteLength" : 566784,
            "byteOffset" : 0,
            "target" : 34962
        },
        {
            "buffer" : 0,
            "byteLength" : 566784,
            "byteOffset" : 566784,
            "target" : 34962
        },
        {
            "buffer" : 0,
            "byteLength" : 141696,
            "byteOffset" : 1133568,
            "target" : 34963
        }
    ],
    "buffers" : [
        {
            "byteLength" : 1275264,
            "uri" : "data:application/octet-stream;base64,"
        }
    ]
}
