{
    "asset" : {
        "generator" : "Khronos glTF Blender I/O v3.3.27",
        "version" : "2.0"
    },
    "scene" : 0,
    "scenes" : [
        {
            "name" : "Scene",
            "nodes" : [
                0
            ]
        }
    ],
    "nodes" : [
        {
            "mesh" : 0,
            "name" : "XYZ Function",
            "scale" : [
                1,
                2.4754605293273926,
                1
            ],
            "translation" : [
                -0.6096980571746826,
                -4.462189674377441,
                -0.8280850052833557
            ]
        }
    ],
    "meshes" : [
        {
            "name" : "XYZ Function",
            "primitives" : [
                {
                    "attributes" : {
                        "POSITION" : 0,
                        "NORMAL" : 1,
                        "TEXCOORD_0" : 2
                    },
                    "indices" : 3
                }
            ]
        }
    ],
    "accessors" : [
        {
            "bufferView" : 0,
            "componentType" : 5126,
            "count" : 4944,
            "max" : [
                9.457680702209473,
                5.138608932495117,
                9.676067352294922
            ],
            "min" : [
                -8.23828411102295,
                -7.674335956573486,
                -10.712080955505371
            ],
            "type" : "VEC3"
        },
        {
            "bufferView" : 1,
            "componentType" : 5126,
            "count" : 4944,
            "type" : "VEC3"
        },
        {
            "bufferView" : 2,
            "componentType" : 5126,
            "count" : 4944,
            "type" : "VEC2"
        },
        {
            "bufferView" : 3,
            "componentType" : 5123,
            "count" : 7056,
            "type" : "SCALAR"
        }
    ],
    "bufferViews" : [
        {
            "buffer" : 0,
            "byteLength" : 59328,
            "byteOffset" : 0,
            "target" : 34962
        },
        {
            "buffer" : 0,
            "byteLength" : 59328,
            "byteOffset" : 59328,
            "target" : 34962
        },
        {
            "buffer" : 0,
            "byteLength" : 39552,
            "byteOffset" : 118656,
            "target" : 34962
        },
        {
            "buffer" : 0,
            "byteLength" : 14112,
            "byteOffset" : 158208,
            "target" : 34963
        }
    ],
    "buffers" : [
        {
            "byteLength" : 172320,
            "uri" : "data:application/octet-stream;base64,"
        }
    ]
}
